<svg width="100%" viewBox="0 0 304 70" fill="none" xmlns="http://www.w3.org/2000/svg">
        <g clip-path="url(#clip0_570_26)">
        <path d="M79.0631 27.3805V3.28394H91.6029C93.3343 3.28394 94.7816 3.60617 95.9394 4.25064C97.0973 4.89511 97.9766 5.79627 98.5719 6.95413C99.1673 8.11199 99.4676 9.48832 99.4676 11.0831C99.4676 12.6779 99.1563 14.0651 98.5392 15.2448C97.9165 16.43 97.0099 17.3476 95.8138 18.003C94.6177 18.6584 93.154 18.986 91.4227 18.986H84.2898V27.3805H79.0576H79.0631ZM84.2953 14.6987H90.7236C91.8268 14.6987 92.6734 14.3819 93.2687 13.7484C93.864 13.1148 94.1644 12.2355 94.1644 11.1159C94.1644 10.3403 94.0333 9.70132 93.7766 9.18247C93.52 8.66908 93.1376 8.27038 92.6352 7.98638C92.1327 7.70784 91.4937 7.56583 90.7181 7.56583H84.2898V14.6987H84.2953Z" fill="#2B2635"/>
        <path d="M102.564 27.3807V8.90409H106.606L106.993 11.7824H107.239C107.474 11.1761 107.78 10.619 108.151 10.1166C108.528 9.6141 108.992 9.20994 109.555 8.90409C110.117 8.59824 110.773 8.44531 111.521 8.44531C111.92 8.44531 112.28 8.48901 112.608 8.57093C112.936 8.65285 113.181 8.72932 113.345 8.80032V13.2242H111.832C111.106 13.2242 110.467 13.3225 109.915 13.5246C109.364 13.7267 108.905 14.0325 108.528 14.4531C108.151 14.8736 107.878 15.3925 107.703 15.9987C107.529 16.6104 107.441 17.3204 107.441 18.1397V27.3807H102.559H102.564Z" fill="#2B2635"/>
        <path d="M124.062 27.8009C122.046 27.8009 120.337 27.4569 118.933 26.7632C117.53 26.0751 116.459 25.0046 115.738 23.5682C115.012 22.1263 114.651 20.3185 114.651 18.1394C114.651 15.9602 115.012 14.0923 115.738 12.6778C116.465 11.2632 117.53 10.2091 118.933 9.51549C120.337 8.82733 122.046 8.47778 124.062 8.47778C126.077 8.47778 127.852 8.82186 129.245 9.51549C130.637 10.2091 131.697 11.2632 132.423 12.6778C133.15 14.0923 133.51 15.9165 133.51 18.1394C133.51 20.3622 133.144 22.1263 132.423 23.5682C131.697 25.0101 130.637 26.0751 129.245 26.7632C127.852 27.4514 126.126 27.8009 124.062 27.8009ZM124.062 24.0106C125.138 24.0106 126.001 23.814 126.645 23.4153C127.29 23.0166 127.765 22.4103 128.071 21.5911C128.376 20.7719 128.529 19.7669 128.529 18.5708V17.7297C128.529 16.5336 128.376 15.5287 128.071 14.7095C127.765 13.8902 127.29 13.2731 126.645 12.8635C126.001 12.4538 125.138 12.2518 124.062 12.2518C122.986 12.2518 122.161 12.4593 121.517 12.8635C120.872 13.2731 120.397 13.8902 120.091 14.7095C119.785 15.5287 119.632 16.5336 119.632 17.7297V18.5708C119.632 19.7669 119.785 20.7719 120.091 21.5911C120.397 22.4103 120.872 23.022 121.517 23.4153C122.161 23.814 123.008 24.0106 124.062 24.0106Z" fill="#2B2635"/>
        <path d="M140.118 33.9838C139.299 33.9838 138.523 33.8145 137.797 33.4759C137.071 33.1373 136.486 32.6403 136.038 31.9849C135.591 31.3295 135.372 30.543 135.372 29.6309C135.372 28.5987 135.672 27.774 136.268 27.1568C136.863 26.5342 137.54 26.0754 138.289 25.7696C137.748 25.4637 137.311 25.065 136.972 24.5735C136.634 24.0819 136.464 23.5085 136.464 22.8531C136.464 21.941 136.798 21.1982 137.464 20.6247C138.13 20.0513 138.9 19.6799 139.763 19.516C138.895 18.9753 138.223 18.2926 137.742 17.4625C137.262 16.6323 137.021 15.6984 137.021 14.6716C137.021 13.3389 137.355 12.2139 138.021 11.3018C138.687 10.3897 139.649 9.69059 140.899 9.20997C142.15 8.72935 143.635 8.48904 145.345 8.48904C146.022 8.48904 146.661 8.52181 147.262 8.59281C147.857 8.66381 148.403 8.77851 148.895 8.94235C149.763 8.42896 150.353 7.86096 150.67 7.23833C150.987 6.61571 151.156 6.1187 151.178 5.74731H155.711C155.711 6.61571 155.553 7.36395 155.236 7.9975C154.919 8.63104 154.471 9.14989 153.881 9.55951C153.297 9.96913 152.593 10.2695 151.773 10.4552C152.38 10.9686 152.849 11.5912 153.177 12.3176C153.505 13.044 153.668 13.8305 153.668 14.6716C153.668 15.9824 153.352 17.102 152.718 18.025C152.085 18.948 151.189 19.658 150.031 20.1496C148.873 20.6411 147.486 20.8869 145.869 20.8869H143.057C142.494 20.8869 142.073 20.9852 141.789 21.1873C141.511 21.3839 141.369 21.6734 141.369 22.0502C141.369 22.3561 141.495 22.6182 141.74 22.8421C141.986 23.0661 142.39 23.1753 142.953 23.1753H150.648C152.194 23.1753 153.428 23.6505 154.357 24.6008C155.28 25.5511 155.744 26.7636 155.744 28.2382C155.744 29.3633 155.449 30.3573 154.865 31.2257C154.28 32.0941 153.472 32.7713 152.44 33.2629C151.407 33.7544 150.228 34.0002 148.89 34.0002H140.107L140.118 33.9838ZM142.155 30.7178H148.655C149.075 30.7178 149.452 30.6413 149.78 30.4884C150.107 30.3355 150.364 30.1225 150.555 29.8548C150.741 29.5872 150.834 29.2759 150.834 28.9209C150.834 28.3092 150.648 27.8559 150.271 27.55C149.894 27.2442 149.43 27.0913 148.868 27.0913H142.155C141.593 27.0913 141.129 27.2551 140.768 27.5828C140.402 27.9105 140.222 28.342 140.222 28.8827C140.222 29.4234 140.402 29.8603 140.768 30.1989C141.134 30.5375 141.593 30.7069 142.155 30.7069V30.7178ZM145.35 17.7192C146.497 17.7192 147.371 17.457 147.967 16.9272C148.562 16.3974 148.862 15.6437 148.862 14.6607C148.862 13.6776 148.562 12.9239 147.967 12.3941C147.371 11.8643 146.497 11.6022 145.35 11.6022C144.203 11.6022 143.368 11.8643 142.767 12.3941C142.166 12.9239 141.871 13.6776 141.871 14.6607C141.871 15.2942 142.002 15.8458 142.259 16.3101C142.516 16.7798 142.904 17.1293 143.417 17.3641C143.93 17.599 144.575 17.7137 145.35 17.7137V17.7192Z" fill="#2B2635"/>
        <path d="M158.42 27.3807V8.90409H162.461L162.849 11.7824H163.095C163.329 11.1761 163.635 10.619 164.007 10.1166C164.384 9.6141 164.848 9.20994 165.41 8.90409C165.973 8.59824 166.628 8.44531 167.377 8.44531C167.775 8.44531 168.136 8.48901 168.463 8.57093C168.791 8.65285 169.037 8.72932 169.201 8.80032V13.2242H167.688C166.961 13.2242 166.322 13.3225 165.771 13.5246C165.219 13.7267 164.76 14.0325 164.384 14.4531C164.007 14.8736 163.734 15.3925 163.559 15.9987C163.384 16.6104 163.297 17.3204 163.297 18.1397V27.3807H158.414H158.42Z" fill="#2B2635"/>
        <path d="M176.302 27.8012C175.69 27.8012 175.04 27.7302 174.352 27.5882C173.664 27.4462 173.008 27.195 172.402 26.8345C171.79 26.4741 171.293 25.9443 170.911 25.2561C170.523 24.568 170.332 23.6832 170.332 22.6018C170.332 21.3129 170.611 20.2478 171.173 19.4068C171.736 18.5657 172.539 17.9048 173.582 17.4242C174.625 16.9436 175.87 16.6104 177.323 16.4247C178.776 16.239 180.381 16.1462 182.135 16.1462V14.7753C182.135 14.2346 182.047 13.7704 181.872 13.3717C181.698 12.973 181.392 12.6562 180.96 12.4214C180.529 12.1865 179.923 12.0718 179.153 12.0718C178.382 12.0718 177.754 12.1647 177.274 12.3504C176.793 12.5361 176.454 12.7764 176.252 13.0713C176.05 13.3662 175.952 13.683 175.952 14.038V14.4585H171.211C171.19 14.3439 171.179 14.2292 171.179 14.1254V13.7212C171.179 12.6453 171.506 11.7114 172.162 10.9304C172.817 10.1439 173.74 9.5431 174.936 9.12256C176.132 8.70202 177.525 8.48901 179.114 8.48901C180.824 8.48901 182.26 8.71294 183.418 9.15533C184.576 9.60318 185.466 10.2586 186.089 11.1215C186.711 11.9899 187.017 13.0768 187.017 14.3875V22.782C187.017 23.2026 187.143 23.5139 187.389 23.7105C187.634 23.9126 187.907 24.0109 188.213 24.0109H189.371V27.2059C189.136 27.3206 188.776 27.4462 188.284 27.5719C187.793 27.7029 187.197 27.763 186.493 27.763C185.788 27.763 185.209 27.6647 184.685 27.4626C184.161 27.266 183.718 26.982 183.369 26.6215C183.019 26.2611 182.774 25.8187 182.632 25.3053H182.386C181.987 25.7968 181.501 26.2283 180.928 26.6052C180.354 26.982 179.688 27.2715 178.923 27.4845C178.164 27.6975 177.29 27.8012 176.307 27.8012H176.302ZM177.956 24.1147C178.612 24.1147 179.196 24.0164 179.715 23.8143C180.228 23.6177 180.665 23.3446 181.015 23.006C181.364 22.6673 181.643 22.2523 181.84 21.7607C182.036 21.2692 182.14 20.7394 182.14 20.1823V19.161C180.829 19.161 179.655 19.2484 178.628 19.4231C177.596 19.5979 176.782 19.8983 176.187 20.3188C175.592 20.7394 175.291 21.3238 175.291 22.0775C175.291 22.498 175.395 22.864 175.608 23.1643C175.821 23.4702 176.121 23.705 176.52 23.8689C176.919 24.0327 177.399 24.1147 177.962 24.1147H177.956Z" fill="#2B2635"/>
        <path d="M191.796 27.3806V8.90394H195.837L196.225 11.4327H196.471C196.87 10.821 197.345 10.2967 197.891 9.85426C198.443 9.41187 199.06 9.06779 199.753 8.83294C200.442 8.59809 201.19 8.4834 201.982 8.4834C203.151 8.4834 204.166 8.71825 205.018 9.18794C205.87 9.65764 206.537 10.4059 207.001 11.4381H207.247C207.645 10.8264 208.126 10.3021 208.689 9.85972C209.251 9.41733 209.896 9.07325 210.622 8.8384C211.348 8.60355 212.119 8.48886 212.943 8.48886C214.112 8.48886 215.128 8.70186 215.98 9.12241C216.837 9.54295 217.509 10.2311 218.001 11.176C218.492 12.1263 218.738 13.3497 218.738 14.8462V27.386H213.855V15.72C213.855 15.1356 213.79 14.6386 213.664 14.229C213.533 13.8194 213.353 13.4917 213.118 13.2459C212.883 13.0001 212.594 12.8199 212.239 12.6998C211.889 12.5851 211.512 12.525 211.114 12.525C210.458 12.525 209.874 12.6998 209.355 13.0493C208.842 13.3988 208.437 13.8795 208.142 14.4912C207.848 15.1029 207.706 15.8019 207.706 16.5993V27.386H202.823V15.72C202.823 15.1356 202.757 14.6386 202.632 14.229C202.501 13.8194 202.32 13.4917 202.086 13.2459C201.851 13.0001 201.567 12.8199 201.223 12.6998C200.884 12.5851 200.502 12.525 200.081 12.525C199.448 12.525 198.869 12.6998 198.344 13.0493C197.82 13.3988 197.41 13.8795 197.115 14.4912C196.821 15.1029 196.679 15.8019 196.679 16.5993V27.386H191.796V27.3806Z" fill="#2B2635"/>
        <path d="M223.096 27.3806V8.90394H227.137L227.525 11.4327H227.771C228.17 10.821 228.645 10.2967 229.191 9.85426C229.742 9.41187 230.36 9.06779 231.053 8.83294C231.741 8.59809 232.49 8.4834 233.282 8.4834C234.45 8.4834 235.466 8.71825 236.318 9.18794C237.17 9.65764 237.837 10.4059 238.301 11.4381H238.547C238.945 10.8264 239.426 10.3021 239.988 9.85972C240.551 9.41733 241.195 9.07325 241.922 8.8384C242.648 8.60355 243.418 8.48886 244.243 8.48886C245.412 8.48886 246.428 8.70186 247.28 9.12241C248.137 9.54295 248.809 10.2311 249.3 11.176C249.792 12.1263 250.038 13.3497 250.038 14.8462V27.386H245.155V15.72C245.155 15.1356 245.09 14.6386 244.964 14.229C244.833 13.8194 244.653 13.4917 244.418 13.2459C244.183 13.0001 243.893 12.8199 243.538 12.6998C243.189 12.5851 242.812 12.525 242.413 12.525C241.758 12.525 241.174 12.6998 240.655 13.0493C240.141 13.3988 239.737 13.8795 239.442 14.4912C239.147 15.1029 239.005 15.8019 239.005 16.5993V27.386H234.123V15.72C234.123 15.1356 234.057 14.6386 233.932 14.229C233.8 13.8194 233.62 13.4917 233.385 13.2459C233.151 13.0001 232.867 12.8199 232.522 12.6998C232.184 12.5851 231.801 12.525 231.381 12.525C230.747 12.525 230.168 12.6998 229.644 13.0493C229.12 13.3988 228.71 13.8795 228.415 14.4912C228.12 15.1029 227.978 15.8019 227.978 16.5993V27.386H223.096V27.3806Z" fill="#2B2635"/>
        <path d="M262.791 27.8009C260.754 27.8009 259.044 27.4569 257.663 26.7632C256.281 26.0751 255.238 25.0101 254.538 23.5846C253.834 22.1591 253.484 20.3404 253.484 18.1394C253.484 15.9383 253.834 14.0923 254.538 12.6778C255.243 11.2632 256.275 10.2091 257.646 9.51549C259.017 8.82733 260.694 8.47778 262.687 8.47778C264.561 8.47778 266.139 8.81094 267.428 9.47726C268.717 10.1436 269.689 11.1758 270.344 12.5685C271 13.9612 271.327 15.7581 271.327 17.9591V19.2262H258.433C258.482 20.3022 258.651 21.2197 258.941 21.9679C259.23 22.7162 259.689 23.2733 260.311 23.6337C260.934 23.9997 261.759 24.1799 262.785 24.1799C263.348 24.1799 263.856 24.1089 264.315 23.9669C264.774 23.8249 265.161 23.6174 265.489 23.3333C265.817 23.0493 266.073 22.6998 266.265 22.2793C266.45 21.8587 266.543 21.3781 266.543 20.8374H271.322C271.322 22.0062 271.109 23.0275 270.688 23.8959C270.268 24.7643 269.683 25.4852 268.93 26.0587C268.182 26.6322 267.286 27.0636 266.243 27.3586C265.2 27.6535 264.047 27.7955 262.78 27.7955L262.791 27.8009ZM258.509 16.1404H266.308C266.308 15.4359 266.221 14.8296 266.046 14.3162C265.871 13.8028 265.631 13.3823 265.325 13.0491C265.019 12.7214 264.653 12.4811 264.216 12.3282C263.785 12.1753 263.299 12.0988 262.758 12.0988C261.868 12.0988 261.125 12.2463 260.53 12.5358C259.935 12.8252 259.476 13.2731 259.159 13.8684C258.842 14.4637 258.624 15.2229 258.509 16.135V16.1404Z" fill="#2B2635"/>
        <path d="M274.917 27.3807V8.90409H278.958L279.346 11.7824H279.592C279.827 11.1761 280.132 10.619 280.504 10.1166C280.881 9.6141 281.345 9.20994 281.907 8.90409C282.47 8.59824 283.125 8.44531 283.874 8.44531C284.272 8.44531 284.633 8.48901 284.96 8.57093C285.288 8.65285 285.534 8.72932 285.698 8.80032V13.2242H284.185C283.459 13.2242 282.82 13.3225 282.268 13.5246C281.716 13.7267 281.258 14.0325 280.881 14.4531C280.504 14.8736 280.231 15.3925 280.056 15.9987C279.881 16.6104 279.794 17.3204 279.794 18.1397V27.3807H274.911H274.917Z" fill="#2B2635"/>
        <path d="M295.747 27.8011C294.458 27.8011 293.3 27.6591 292.268 27.3806C291.236 27.102 290.356 26.7088 289.635 26.2008C288.909 25.6984 288.352 25.0921 287.97 24.3931C287.582 23.6885 287.391 22.8966 287.391 22.0063V21.7278C287.391 21.6349 287.402 21.5639 287.423 21.5148H292.131V21.7933C292.153 22.3777 292.344 22.8529 292.694 23.2188C293.043 23.5847 293.508 23.8469 294.081 24.0107C294.655 24.1746 295.261 24.2565 295.889 24.2565C296.451 24.2565 296.998 24.2019 297.522 24.0981C298.046 23.9944 298.494 23.7977 298.855 23.5192C299.215 23.2407 299.401 22.8747 299.401 22.4323C299.401 21.8698 299.171 21.4383 298.718 21.1325C298.259 20.8266 297.664 20.5809 296.927 20.3952C296.189 20.2095 295.386 19.9965 294.518 19.7616C293.721 19.5759 292.923 19.3575 292.131 19.1117C291.334 18.8659 290.613 18.5437 289.968 18.145C289.324 17.7463 288.805 17.2274 288.406 16.583C288.008 15.9385 287.811 15.1247 287.811 14.1416C287.811 13.1585 288.024 12.3448 288.445 11.6293C288.865 10.9138 289.444 10.324 290.181 9.85426C290.919 9.38456 291.787 9.04048 292.781 8.81656C293.775 8.59263 294.846 8.4834 295.998 8.4834C297.074 8.4834 298.084 8.59263 299.018 8.81656C299.952 9.04048 300.777 9.36818 301.476 9.79965C302.181 10.2311 302.727 10.7718 303.126 11.4163C303.524 12.0607 303.721 12.7817 303.721 13.5791V14.0379C303.721 14.1799 303.71 14.2727 303.688 14.3164H299.018V14.0379C299.018 13.6173 298.887 13.2568 298.631 12.9674C298.374 12.6724 298.003 12.4485 297.522 12.2847C297.041 12.1208 296.462 12.0389 295.785 12.0389C295.315 12.0389 294.889 12.0717 294.502 12.1427C294.114 12.2137 293.781 12.3174 293.502 12.4594C293.224 12.6014 293.005 12.7708 292.852 12.9674C292.699 13.1695 292.623 13.4043 292.623 13.6883C292.623 14.087 292.792 14.4092 293.131 14.655C293.469 14.9008 293.923 15.1083 294.485 15.2722C295.048 15.436 295.67 15.6108 296.348 15.7965C297.189 16.0313 298.074 16.2607 299.002 16.4792C299.925 16.7031 300.788 16.998 301.585 17.3749C302.383 17.7517 303.027 18.2815 303.519 18.9751C304.01 19.6688 304.256 20.5972 304.256 21.766C304.256 22.9348 304.038 23.8414 303.606 24.6115C303.175 25.3871 302.568 26.0042 301.798 26.4739C301.023 26.9436 300.122 27.2822 299.095 27.4952C298.063 27.7082 296.954 27.812 295.758 27.812L295.747 27.8011Z" fill="#2B2635"/>
        <path d="M189.897 68.8244C188.727 68.8244 187.78 68.6139 187.055 68.1928C186.33 67.7718 185.803 67.2104 185.476 66.5086C185.149 65.7835 184.985 64.9882 184.985 64.1227V53.7018H182.704V49.9474H185.16L186.072 44.6843H189.862V49.9474H193.23V53.7018H189.862V63.3157C189.862 63.8771 189.991 64.3098 190.248 64.6139C190.505 64.8946 190.926 65.035 191.511 65.035H193.23V68.263C192.95 68.3566 192.622 68.4384 192.248 68.5086C191.874 68.6022 191.476 68.6724 191.055 68.7191C190.634 68.7893 190.248 68.8244 189.897 68.8244Z" fill="#2B2635"/>
        <path d="M172.284 68.8244C170.249 68.8244 168.542 68.4852 167.162 67.8069C165.782 67.1051 164.741 66.0408 164.039 64.6139C163.337 63.187 162.986 61.3742 162.986 59.1754C162.986 56.9532 163.337 55.1403 164.039 53.7368C164.741 52.31 165.77 51.2573 167.127 50.579C168.507 49.8772 170.191 49.5264 172.179 49.5264C174.051 49.5264 175.629 49.8655 176.916 50.5439C178.202 51.1989 179.173 52.2281 179.828 53.6316C180.483 55.0117 180.811 56.8011 180.811 58.9999V60.2631H167.934C167.98 61.3391 168.144 62.2514 168.425 62.9999C168.729 63.7484 169.185 64.3098 169.793 64.6841C170.425 65.035 171.255 65.2104 172.284 65.2104C172.846 65.2104 173.349 65.1402 173.793 64.9999C174.261 64.8595 174.659 64.649 174.986 64.3683C175.314 64.0876 175.571 63.7367 175.758 63.3157C175.945 62.8946 176.039 62.4151 176.039 61.8771H180.811C180.811 63.0467 180.6 64.0642 180.179 64.9297C179.758 65.7952 179.173 66.5203 178.425 67.1051C177.676 67.6665 176.776 68.0993 175.723 68.4033C174.694 68.684 173.548 68.8244 172.284 68.8244ZM168.004 57.1754H175.793C175.793 56.4737 175.7 55.8655 175.512 55.3509C175.349 54.8362 175.115 54.4152 174.811 54.0877C174.507 53.7602 174.132 53.5263 173.688 53.386C173.267 53.2222 172.787 53.1404 172.249 53.1404C171.36 53.1404 170.612 53.2924 170.004 53.5965C169.419 53.8772 168.963 54.3216 168.635 54.9298C168.331 55.5146 168.121 56.2631 168.004 57.1754Z" fill="#2B2635"/>
        <path d="M145.089 68.4032V43H149.966V57.6314L156.422 49.9473H162.141L155.826 57.1753L162.457 68.4032H156.878L152.633 60.6138L149.966 63.2103V68.4032H145.089Z" fill="#2B2635"/>
        <path d="M133.079 68.8243C131.114 68.8243 129.465 68.4852 128.132 67.8068C126.798 67.1051 125.781 66.0407 125.079 64.6139C124.401 63.1636 124.062 61.3507 124.062 59.1753C124.062 56.9531 124.401 55.1403 125.079 53.7368C125.781 52.3099 126.798 51.2456 128.132 50.5438C129.488 49.8421 131.137 49.4912 133.079 49.4912C134.342 49.4912 135.477 49.6433 136.482 49.9473C137.512 50.2514 138.401 50.7193 139.149 51.3508C139.898 51.9824 140.459 52.766 140.833 53.7017C141.231 54.614 141.43 55.7017 141.43 56.9648H136.553C136.553 56.1227 136.424 55.4327 136.167 54.8947C135.909 54.3567 135.512 53.9473 134.974 53.6666C134.459 53.3859 133.804 53.2456 133.009 53.2456C132.073 53.2456 131.313 53.4561 130.728 53.8771C130.143 54.2982 129.711 54.9181 129.43 55.7368C129.149 56.5555 129.009 57.573 129.009 58.7894V59.5964C129.009 60.7893 129.149 61.7952 129.43 62.6139C129.734 63.4326 130.19 64.0525 130.798 64.4735C131.406 64.8712 132.202 65.07 133.184 65.07C133.98 65.07 134.634 64.9296 135.149 64.6489C135.687 64.3682 136.096 63.9472 136.377 63.3858C136.658 62.8244 136.798 62.146 136.798 61.3507H141.43C141.43 62.5437 141.231 63.608 140.833 64.5437C140.459 65.4793 139.898 66.263 139.149 66.8945C138.424 67.5261 137.547 68.0056 136.518 68.3331C135.488 68.6606 134.342 68.8243 133.079 68.8243Z" fill="#2B2635"/>
        <path d="M109.866 68.8242C107.995 68.8242 106.509 68.3096 105.41 67.2804C104.31 66.2512 103.761 64.5904 103.761 62.298V49.9473H108.638V61.491C108.638 62.0992 108.708 62.6138 108.848 63.0348C108.989 63.4325 109.188 63.76 109.445 64.0173C109.726 64.2746 110.065 64.4617 110.462 64.5787C110.86 64.6956 111.305 64.7541 111.796 64.7541C112.521 64.7541 113.176 64.5787 113.761 64.2278C114.345 63.8769 114.802 63.3974 115.129 62.7892C115.457 62.1577 115.62 61.4559 115.62 60.684V49.9473H120.497V68.4032H116.497L116.147 65.8769H115.901C115.457 66.4617 114.93 66.9763 114.322 67.4208C113.737 67.8652 113.071 68.2044 112.322 68.4383C111.574 68.6956 110.755 68.8242 109.866 68.8242Z" fill="#2B2635"/>
        <path d="M79 68.4036V44.3337H92.7542C94.0174 44.3337 95.1519 44.5794 96.1577 45.0706C97.1869 45.5618 97.9939 46.2518 98.5787 47.1407C99.1635 48.0296 99.4559 49.0705 99.4559 50.2635C99.4559 51.2226 99.2805 52.0763 98.9296 52.8249C98.5787 53.5734 98.0992 54.1933 97.491 54.6845C96.9062 55.1757 96.2396 55.5383 95.4911 55.7722V55.9126C96.3799 56.0997 97.1635 56.4506 97.8419 56.9652C98.5436 57.4798 99.0933 58.1465 99.491 58.9652C99.9121 59.7605 100.123 60.7078 100.123 61.8072C100.123 63.2575 99.7834 64.4739 99.105 65.4563C98.4501 66.4388 97.5729 67.1756 96.4735 67.6668C95.3741 68.158 94.146 68.4036 92.7893 68.4036H79ZM84.228 64.123H91.7718C92.6373 64.123 93.339 63.8774 93.877 63.3862C94.4384 62.8949 94.7191 62.1347 94.7191 61.1055C94.7191 60.4973 94.6022 59.971 94.3682 59.5266C94.1343 59.0821 93.7835 58.7429 93.3156 58.509C92.8478 58.2517 92.2513 58.1231 91.5262 58.1231H84.228V64.123ZM84.228 54.0529H91.1753C91.8069 54.0529 92.3332 53.936 92.7542 53.7021C93.1987 53.4447 93.5262 53.1173 93.7367 52.7196C93.9706 52.2986 94.0876 51.819 94.0876 51.281C94.0876 50.3688 93.8303 49.6787 93.3156 49.2109C92.8244 48.743 92.1694 48.5091 91.3507 48.5091H84.228V54.0529Z" fill="#2B2635"/>
        <path d="M40.1962 16.1281L39.5048 16.2037C39.2833 15.885 39.0403 15.5771 38.7864 15.2693C38.5164 14.9398 38.2301 14.6103 37.933 14.2916C37.2579 13.5733 36.5071 12.8819 35.6699 12.2122C35.9292 12.4066 36.1938 12.6281 36.4477 12.8441L40.1962 16.1281Z" fill="#FCBB17"/>
        <path d="M64.5114 26.7597C63.6773 22.1355 59.7499 11.1647 41.1958 8.76675C39.8922 7.49301 38.4616 6.35218 36.9149 5.36088C28.2538 -0.22697 15.9469 -1.55055 2.23158 1.88301L0 2.44789V29.3404C2.0272 27.9061 3.98811 26.6047 5.88827 25.4362C7.03168 24.7273 8.15851 24.0627 9.25221 23.4425C10.8265 22.5398 12.3565 21.7312 13.8369 21.0057C14.4997 20.679 15.157 20.3633 15.8033 20.0698C16.2728 19.8483 16.7368 19.6489 17.2008 19.444C17.2505 19.4163 17.3113 19.3942 17.361 19.3776C17.8802 19.1505 18.3939 18.929 18.9076 18.7296C19.8522 18.342 20.7747 17.9931 21.675 17.6774C21.7026 17.6663 21.7247 17.6608 21.7523 17.6497C22.2053 17.4891 22.6527 17.3396 23.0891 17.1956C24.2491 16.8135 25.3759 16.4812 26.453 16.1988C29.2701 15.4567 31.8221 15.0247 34.0868 14.8087C32.9268 13.7953 31.6122 12.9092 30.1594 12.1615C28.7454 11.4361 27.1822 10.838 25.4919 10.3728C20.747 11.5801 15.3117 13.5793 9.25221 16.7359C8.14746 17.3119 7.03168 17.9266 5.88827 18.5746V7.09427C13.1519 5.54917 19.8467 5.51594 25.5195 6.88937C27.74 7.42655 29.8114 8.17972 31.6895 9.14888C34.4127 10.5389 36.7547 12.3775 38.6217 14.6315C38.8096 14.8586 38.9918 15.0856 39.1686 15.3238C39.8425 16.2098 40.4114 17.1291 40.8865 18.0651C43.0462 22.3238 43.1512 26.948 41.0301 30.6696C38.5223 35.0889 33.2472 37.5976 26.1989 37.8468C25.862 37.8634 25.5195 37.8745 25.1715 37.8745C24.4976 37.8745 23.8072 37.8579 23.1001 37.8247V20.751C21.2497 21.3989 19.2888 22.1853 17.2119 23.1379V64.097H5.88827V29.4235C4.48525 30.3262 3.03804 31.3064 1.55768 32.3587L0 33.4718V70.0005H23.0946V43.7393C23.3653 43.7503 23.6359 43.7559 23.9011 43.767C31.2366 50.252 37.876 52.1349 43.118 52.1349C47.5425 52.1238 50.9783 50.7836 52.9613 49.748C61.2579 45.3951 66.1132 35.7258 64.5058 26.7597H64.5114ZM50.2436 44.509C44.974 47.267 38.8316 46.6689 32.6838 42.9473C38.7764 41.5407 43.4605 38.3397 46.1561 33.5992C49.1831 28.2495 49.2107 21.7811 46.3825 15.8831C53.3258 18.0429 57.7172 22.2075 58.717 27.8009C59.888 34.297 56.3197 41.3136 50.2436 44.5035V44.509Z" fill="#FCBB17"/>
        </g>
        <defs>
        <clipPath id="clip0_570_26">
        <rect width="304" height="70" fill="white"/>
        </clipPath>
        </defs>
        </svg>